<svg width="242" height="78" viewBox="0 0 242 78" fill="none" xmlns="http://www.w3.org/2000/svg">
<path d="M229.862 56.6127C228.126 56.6127 226.288 56.4084 224.348 56C222.408 55.6425 220.952 55.183 219.982 54.6214L218.374 44.6649L220.901 44.2054C221.361 46.7073 222.28 48.8517 223.659 50.6388C225.088 52.3748 226.977 53.2428 229.326 53.2428C231.113 53.2428 232.619 52.8088 233.845 51.9408C235.07 51.0728 235.683 49.7963 235.683 48.1114C235.683 46.886 235.172 45.7882 234.151 44.8181C233.13 43.7969 231.879 42.8268 230.398 41.9077C228.918 40.9376 227.411 39.9164 225.88 38.8442C224.399 37.772 223.148 36.5721 222.127 35.2445C221.106 33.866 220.595 32.2321 220.595 30.3429C220.595 27.2283 221.718 24.803 223.965 23.067C226.263 21.331 229.096 20.463 232.466 20.463C234.151 20.463 235.657 20.6162 236.985 20.9225C238.312 21.1778 239.206 21.3565 239.666 21.4587L240.814 30.1897L238.517 30.5727C238.261 28.4792 237.547 26.8454 236.372 25.671C235.249 24.4967 233.819 23.9095 232.083 23.9095C230.398 23.9095 228.994 24.3435 227.871 25.2115C226.748 26.0284 226.186 27.2538 226.186 28.8877C226.186 30.3684 226.697 31.6194 227.718 32.6405C228.79 33.6617 230.092 34.6063 231.624 35.4743C233.156 36.3423 234.662 37.2614 236.142 38.2315C237.674 39.2016 238.951 40.4015 239.972 41.8311C241.044 43.2608 241.58 45.0478 241.58 47.1923C241.58 50.0005 240.482 52.2727 238.287 54.0087C236.142 55.7447 233.334 56.6127 229.862 56.6127Z" fill="#82817E"/>
<path d="M194.203 56.6127C191.548 56.6127 189.353 55.7702 187.617 54.0853C185.881 52.4003 185.013 50.2048 185.013 47.4987C185.013 46.5285 185.089 45.584 185.242 44.6649C185.447 43.7458 185.728 42.9544 186.085 42.2907C186.544 42.0354 187.464 41.6524 188.842 41.1418C190.272 40.5802 191.906 39.9675 193.744 39.3037C195.582 38.64 197.343 38.0017 199.028 37.389C200.764 36.7763 202.168 36.2912 203.241 35.9338V30.0365C203.241 29.0154 203.19 28.1984 203.088 27.5857C203.036 26.973 202.832 26.3858 202.475 25.8242C202.168 25.3136 201.683 24.8541 201.02 24.4456C200.356 24.0371 199.513 23.8329 198.492 23.8329C196.654 23.8329 195.173 24.4967 194.05 25.8242C192.978 27.1007 192.595 28.709 192.901 30.6492L186.774 33.1001C186.723 30.394 187.31 28.0963 188.536 26.2071C189.761 24.318 191.421 22.8883 193.514 21.9182C195.658 20.9481 197.956 20.463 200.407 20.463C203.062 20.463 205.206 21.1012 206.84 22.3777C208.474 23.6031 209.291 25.5434 209.291 28.1984V47.805C209.291 49.2347 209.317 50.2558 209.368 50.8685C209.47 51.4302 209.776 51.9152 210.287 52.3237C210.797 52.6811 211.41 52.8088 212.125 52.7067C212.84 52.6045 213.427 52.4769 213.886 52.3237L214.806 54.315C213.886 54.9788 212.891 55.5404 211.819 56C210.797 56.4084 209.649 56.6127 208.372 56.6127C206.994 56.6127 205.896 56.2297 205.079 55.4638C204.262 54.6469 203.751 53.6768 203.547 52.5535C201.913 53.5236 200.381 54.4427 198.952 55.3107C197.522 56.1787 195.939 56.6127 194.203 56.6127ZM196.501 51.8642C197.318 51.8642 198.288 51.711 199.411 51.4047C200.535 51.0983 201.811 50.5877 203.241 49.8729V39.3037C201.709 39.8143 200.075 40.4015 198.339 41.0652C196.654 41.729 195.148 42.3417 193.82 42.9034C192.544 43.414 191.701 43.7969 191.293 44.0522C190.782 46.2988 191.012 48.1624 191.982 49.6431C193.003 51.1238 194.51 51.8642 196.501 51.8642Z" fill="#82817E"/>
<path d="M170.889 56.6127C169.766 56.6127 168.668 56.3574 167.596 55.8468C166.524 55.3362 165.707 54.6469 165.145 53.7789C164.686 53.0641 164.354 52.1705 164.15 51.0983C163.996 50.0261 163.92 48.5454 163.92 46.6562V25.3647H159.861V22.9904C160.882 22.3777 161.928 21.5863 163.001 20.6162C164.073 19.6461 165.094 18.5994 166.064 17.4761C167.034 16.3528 167.877 15.3571 168.592 14.4891L170.123 15.1784V21.0757H180.769V25.3647H170.123V46.2733C170.123 47.8561 170.2 49.056 170.353 49.8729C170.557 50.6388 171.017 51.2515 171.732 51.711C172.396 52.1195 173.264 52.2982 174.336 52.2471C175.459 52.1961 176.531 52.0429 177.552 51.7876C178.625 51.4813 179.391 51.2004 179.85 50.9451L180.922 52.8598C179.646 53.881 178.191 54.7746 176.557 55.5404C174.974 56.2553 173.085 56.6127 170.889 56.6127Z" fill="#82817E"/>
<path d="M136.014 56.6127C133.359 56.6127 131.164 55.7702 129.428 54.0853C127.692 52.4003 126.824 50.2048 126.824 47.4987C126.824 46.5285 126.9 45.584 127.053 44.6649C127.258 43.7458 127.539 42.9544 127.896 42.2907C128.355 42.0354 129.275 41.6524 130.653 41.1418C132.083 40.5802 133.717 39.9675 135.555 39.3037C137.393 38.64 139.154 38.0017 140.839 37.389C142.575 36.7763 143.979 36.2912 145.052 35.9338V30.0365C145.052 29.0154 145.001 28.1984 144.899 27.5857C144.848 26.973 144.643 26.3858 144.286 25.8242C143.98 25.3136 143.494 24.8541 142.831 24.4456C142.167 24.0371 141.324 23.8329 140.303 23.8329C138.465 23.8329 136.984 24.4967 135.861 25.8242C134.789 27.1007 134.406 28.709 134.712 30.6492L128.585 33.1001C128.534 30.394 129.121 28.0963 130.347 26.2071C131.572 24.318 133.232 22.8883 135.325 21.9182C137.469 20.9481 139.767 20.463 142.218 20.463C144.873 20.463 147.018 21.1012 148.651 22.3777C150.285 23.6031 151.102 25.5434 151.102 28.1984V47.805C151.102 49.2347 151.128 50.2558 151.179 50.8685C151.281 51.4302 151.587 51.9152 152.098 52.3237C152.608 52.6811 153.221 52.8088 153.936 52.7067C154.651 52.6045 155.238 52.4769 155.697 52.3237L156.617 54.315C155.698 54.9788 154.702 55.5404 153.63 56C152.608 56.4084 151.46 56.6127 150.183 56.6127C148.805 56.6127 147.707 56.2297 146.89 55.4638C146.073 54.6469 145.562 53.6768 145.358 52.5535C143.724 53.5236 142.192 54.4427 140.763 55.3107C139.333 56.1787 137.75 56.6127 136.014 56.6127ZM138.312 51.8642C139.129 51.8642 140.099 51.711 141.222 51.4047C142.346 51.0983 143.622 50.5877 145.052 49.8729V39.3037C143.52 39.8143 141.886 40.4015 140.15 41.0652C138.465 41.729 136.959 42.3417 135.631 42.9034C134.355 43.414 133.512 43.7969 133.104 44.0522C132.593 46.2988 132.823 48.1624 133.793 49.6431C134.814 51.1238 136.321 51.8642 138.312 51.8642Z" fill="#82817E"/>
<path d="M98.0176 56V53.7024C98.5792 53.7024 99.3962 53.6258 100.468 53.4726C101.541 53.3194 102.536 52.9875 103.455 52.477V26.5135C102.792 26.2582 102 26.1306 101.081 26.1306C100.213 26.0795 99.4217 26.1051 98.7069 26.2072L98.0176 24.2159L108.127 20.0035L109.659 21.0758V28.4282C110.884 26.5391 112.237 24.8031 113.718 23.2202C115.199 21.6374 116.858 20.7439 118.696 20.5397C120.994 20.2844 122.883 20.6162 124.364 21.5353L120.994 28.5048C120.586 28.0964 120.024 27.7134 119.309 27.356C118.594 26.9986 117.777 26.8199 116.858 26.8199C115.02 26.8199 113.565 27.4581 112.493 28.7346C111.421 29.96 110.476 31.3131 109.659 32.7938V52.477C110.833 52.9875 112.059 53.3194 113.335 53.4726C114.612 53.6258 115.607 53.7024 116.322 53.7024V56H98.0176Z" fill="#82817E"/>
<path d="M73.8695 56.6127C73.2058 56.6127 72.542 56.5872 71.8782 56.5361C71.2145 56.4851 70.5507 56.4085 69.8869 56.3064V73.6153C71.0613 74.1259 72.2867 74.4578 73.5632 74.611C74.8396 74.7641 75.8353 74.8407 76.5501 74.8407V77.1384H57.6328V74.8407C58.2966 74.8407 59.2156 74.7641 60.39 74.611C61.5643 74.4578 62.6621 74.1259 63.6833 73.6153V26.5135C63.0195 26.2582 62.2281 26.1306 61.3091 26.1306C60.4411 26.0795 59.6496 26.1051 58.9348 26.2072L58.2455 24.2159L68.3552 20.0035L69.8869 21.0758V26.5135C71.725 24.6754 73.6653 23.2202 75.7076 22.148C77.75 21.0247 79.7413 20.4631 81.6815 20.4631C84.1323 20.4631 86.3023 21.2034 88.1915 22.6841C90.0807 24.1648 91.5359 26.1051 92.5571 28.5048C93.6293 30.8535 94.1654 33.3554 94.1654 36.0105C94.1654 39.8399 93.2974 43.3119 91.5614 46.4265C89.8254 49.5411 87.4256 52.0174 84.3621 53.8555C81.2986 55.6937 77.8011 56.6127 73.8695 56.6127ZM69.8869 49.7198C71.674 51.7621 74.0738 52.7833 77.0862 52.7833C79.4349 52.7833 81.4518 52.1961 83.1367 51.0218C84.8216 49.8474 86.1236 48.2646 87.0427 46.2733C87.9618 44.282 88.4213 42.0354 88.4213 39.5335C88.4213 37.1338 87.9873 34.8872 87.1193 32.7938C86.3023 30.7004 85.128 29.0154 83.5962 27.739C82.1155 26.4114 80.3795 25.7477 78.3882 25.7477C76.9075 25.7477 75.4268 26.1306 73.9461 26.8965C72.4654 27.6624 71.1123 28.607 69.8869 29.7302V49.7198Z" fill="#82817E"/>
<path d="M46.0931 56.6128C44.7145 56.6128 43.5657 56.1532 42.6467 55.2342C41.7276 54.3151 41.2681 53.1918 41.2681 51.8643C41.2681 50.5368 41.7276 49.3879 42.6467 48.4178C43.5657 47.4477 44.7145 46.9626 46.0931 46.9626C47.4717 46.9626 48.6205 47.4222 49.5396 48.3412C50.5097 49.2603 50.9948 50.3836 50.9948 51.7111C50.9948 52.9876 50.5097 54.1364 49.5396 55.1576C48.6205 56.1277 47.4717 56.6128 46.0931 56.6128Z" fill="#5C6B64"/>
<path d="M0.829346 56V53.7024C1.54417 53.7024 2.56535 53.6258 3.89288 53.4726C5.2204 53.3194 6.44582 52.9876 7.56911 52.477V5.22202C6.44582 4.86461 5.24593 4.68591 3.96946 4.68591C2.74405 4.68591 1.77393 4.71143 1.05911 4.76249L0.829346 2.46484C4.19923 2.05638 7.56911 1.67344 10.939 1.31602C14.3089 0.958613 17.6022 0.779907 20.8189 0.779907C23.9335 0.779907 26.7417 1.29049 29.2436 2.31167C31.7965 3.28179 33.9665 4.60932 35.7536 6.29426C37.5917 7.9792 38.9958 9.86837 39.9659 11.9618C40.9361 14.0552 41.4211 16.1997 41.4211 18.3952C41.4211 21.3566 40.5276 24.1904 38.7405 26.8965C37.0045 29.5516 34.4771 31.696 31.1583 33.3299C27.8395 34.9127 23.7803 35.6276 18.9808 35.4744L18.5978 33.0236C24.0101 32.6661 27.9671 31.262 30.469 28.8112C33.0219 26.3604 34.2984 23.4245 34.2984 20.0036C34.2984 17.3996 33.7368 15.0764 32.6135 13.034C31.4902 10.9406 29.9839 9.23014 28.0948 7.90261C26.2056 6.52402 24.0611 5.57944 21.6613 5.06885C19.2616 4.5072 16.7852 4.43061 14.2323 4.83908V52.477C15.5088 52.9876 16.8618 53.3194 18.2915 53.4726C19.7211 53.6258 20.8444 53.7024 21.6613 53.7024V56H0.829346Z" fill="#5C6B64"/>
</svg>
