<svg width="101" height="103" viewBox="0 0 101 103" fill="none" xmlns="http://www.w3.org/2000/svg">
<rect width="101" height="103" rx="50.5" fill="white"/>
<mask id="path-2-outside-1_14_36" maskUnits="userSpaceOnUse" x="22" y="21" width="55" height="61" fill="black">
<rect fill="white" x="22" y="21" width="55" height="61"/>
<path d="M24.3373 79V76.7024C25.0522 76.7024 26.0733 76.6258 27.4009 76.4726C28.7284 76.3194 29.9538 75.9875 31.0771 75.4769V28.222C29.9538 27.8646 28.7539 27.6859 27.4775 27.6859C26.252 27.6859 25.2819 27.7114 24.5671 27.7625L24.3373 25.4648C27.7072 25.0564 31.0771 24.6734 34.447 24.316C37.8169 23.9586 41.1102 23.7799 44.3269 23.7799C47.4415 23.7799 50.2497 24.2905 52.7516 25.3116C55.3045 26.2818 57.4745 27.6093 59.2616 29.2942C61.0997 30.9792 62.5038 32.8683 63.4739 34.9618C64.444 37.0552 64.9291 39.1996 64.9291 41.3952C64.9291 44.3566 64.0356 47.1904 62.2485 49.8965C60.5125 52.5515 57.9851 54.696 54.6663 56.3299C51.3475 57.9127 47.2883 58.6275 42.4888 58.4744L42.1058 56.0235C47.518 55.6661 51.4751 54.262 53.977 51.8112C56.5299 49.3604 57.8064 46.4245 57.8064 43.0035C57.8064 40.3995 57.2448 38.0764 56.1215 36.034C54.9982 33.9406 53.4919 32.2301 51.6028 30.9026C49.7136 29.524 47.5691 28.5794 45.1693 28.0688C42.7696 27.5072 40.2932 27.4306 37.7403 27.8391V75.4769C39.0168 75.9875 40.3698 76.3194 41.7995 76.4726C43.2291 76.6258 44.3524 76.7024 45.1693 76.7024V79H24.3373ZM69.601 79.6127C68.2224 79.6127 67.0736 79.1532 66.1545 78.2341C65.2355 77.3151 64.7759 76.1918 64.7759 74.8642C64.7759 73.5367 65.2355 72.3879 66.1545 71.4178C67.0736 70.4476 68.2224 69.9626 69.601 69.9626C70.9796 69.9626 72.1284 70.4221 73.0475 71.3412C74.0176 72.2602 74.5026 73.3835 74.5026 74.7111C74.5026 75.9875 74.0176 77.1364 73.0475 78.1575C72.1284 79.1276 70.9796 79.6127 69.601 79.6127Z"/>
</mask>
<path d="M24.3373 79V76.7024C25.0522 76.7024 26.0733 76.6258 27.4009 76.4726C28.7284 76.3194 29.9538 75.9875 31.0771 75.4769V28.222C29.9538 27.8646 28.7539 27.6859 27.4775 27.6859C26.252 27.6859 25.2819 27.7114 24.5671 27.7625L24.3373 25.4648C27.7072 25.0564 31.0771 24.6734 34.447 24.316C37.8169 23.9586 41.1102 23.7799 44.3269 23.7799C47.4415 23.7799 50.2497 24.2905 52.7516 25.3116C55.3045 26.2818 57.4745 27.6093 59.2616 29.2942C61.0997 30.9792 62.5038 32.8683 63.4739 34.9618C64.444 37.0552 64.9291 39.1996 64.9291 41.3952C64.9291 44.3566 64.0356 47.1904 62.2485 49.8965C60.5125 52.5515 57.9851 54.696 54.6663 56.3299C51.3475 57.9127 47.2883 58.6275 42.4888 58.4744L42.1058 56.0235C47.518 55.6661 51.4751 54.262 53.977 51.8112C56.5299 49.3604 57.8064 46.4245 57.8064 43.0035C57.8064 40.3995 57.2448 38.0764 56.1215 36.034C54.9982 33.9406 53.4919 32.2301 51.6028 30.9026C49.7136 29.524 47.5691 28.5794 45.1693 28.0688C42.7696 27.5072 40.2932 27.4306 37.7403 27.8391V75.4769C39.0168 75.9875 40.3698 76.3194 41.7995 76.4726C43.2291 76.6258 44.3524 76.7024 45.1693 76.7024V79H24.3373ZM69.601 79.6127C68.2224 79.6127 67.0736 79.1532 66.1545 78.2341C65.2355 77.3151 64.7759 76.1918 64.7759 74.8642C64.7759 73.5367 65.2355 72.3879 66.1545 71.4178C67.0736 70.4476 68.2224 69.9626 69.601 69.9626C70.9796 69.9626 72.1284 70.4221 73.0475 71.3412C74.0176 72.2602 74.5026 73.3835 74.5026 74.7111C74.5026 75.9875 74.0176 77.1364 73.0475 78.1575C72.1284 79.1276 70.9796 79.6127 69.601 79.6127Z" fill="#335231"/>
<path d="M24.3373 79H22.3373V81H24.3373V79ZM24.3373 76.7024V74.7024H22.3373V76.7024H24.3373ZM27.4009 76.4726L27.6301 78.4594L27.6301 78.4594L27.4009 76.4726ZM31.0771 75.4769L31.9047 77.2977L33.0771 76.7648V75.4769H31.0771ZM31.0771 28.222H33.0771V26.7596L31.6835 26.3161L31.0771 28.222ZM24.5671 27.7625L22.577 27.9615L22.7705 29.8959L24.7096 29.7574L24.5671 27.7625ZM24.3373 25.4648L24.0967 23.4794L22.1524 23.715L22.3473 25.6638L24.3373 25.4648ZM34.447 24.316L34.236 22.3272L34.236 22.3272L34.447 24.316ZM52.7516 25.3116L51.9958 27.1633L52.0184 27.1726L52.0411 27.1812L52.7516 25.3116ZM59.2616 29.2942L57.8896 30.7494L57.8998 30.759L57.9101 30.7685L59.2616 29.2942ZM62.2485 49.8965L60.5796 48.7943L60.5746 48.802L62.2485 49.8965ZM54.6663 56.3299L55.5272 58.1351L55.5385 58.1297L55.5496 58.1242L54.6663 56.3299ZM42.4888 58.4744L40.5127 58.7831L40.7686 60.4205L42.425 60.4733L42.4888 58.4744ZM42.1058 56.0235L41.974 54.0279L39.7922 54.172L40.1298 56.3323L42.1058 56.0235ZM53.977 51.8112L52.5919 50.3684L52.5846 50.3754L52.5774 50.3825L53.977 51.8112ZM56.1215 36.034L54.3591 36.9796L54.364 36.9888L54.369 36.9978L56.1215 36.034ZM51.6028 30.9026L50.4238 32.5182L50.4382 32.5287L50.4529 32.539L51.6028 30.9026ZM45.1693 28.0688L44.7136 30.0162L44.7333 30.0208L44.7531 30.025L45.1693 28.0688ZM37.7403 27.8391L37.4243 25.8642L35.7403 26.1336V27.8391H37.7403ZM37.7403 75.4769H35.7403V76.831L36.9975 77.3339L37.7403 75.4769ZM41.7995 76.4726L41.5864 78.4612L41.7995 76.4726ZM45.1693 76.7024H47.1693V74.7024H45.1693V76.7024ZM45.1693 79V81H47.1693V79H45.1693ZM26.3373 79V76.7024H22.3373V79H26.3373ZM24.3373 78.7024C25.1683 78.7024 26.2797 78.6152 27.6301 78.4594L27.1716 74.4858C25.867 74.6363 24.9361 74.7024 24.3373 74.7024V78.7024ZM27.6301 78.4594C29.1474 78.2843 30.5767 77.9013 31.9047 77.2977L30.2495 73.6562C29.3309 74.0738 28.3094 74.3545 27.1716 74.4858L27.6301 78.4594ZM33.0771 75.4769V28.222H29.0771V75.4769H33.0771ZM31.6835 26.3161C30.3486 25.8914 28.9427 25.6859 27.4775 25.6859V29.6859C28.5652 29.6859 29.5591 29.8378 30.4707 30.1278L31.6835 26.3161ZM27.4775 25.6859C26.2327 25.6859 25.2085 25.7116 24.4246 25.7676L24.7096 29.7574C25.3554 29.7113 26.2714 29.6859 27.4775 29.6859V25.6859ZM26.5572 27.5635L26.3274 25.2658L22.3473 25.6638L22.577 27.9615L26.5572 27.5635ZM24.578 27.4503C27.938 27.043 31.298 26.6612 34.6579 26.3048L34.236 22.3272C30.8562 22.6856 27.4764 23.0697 24.0967 23.4794L24.578 27.4503ZM34.6579 26.3048C37.9614 25.9545 41.1843 25.7799 44.3269 25.7799V21.7799C41.0361 21.7799 37.6723 21.9627 34.236 22.3272L34.6579 26.3048ZM44.3269 25.7799C47.2214 25.7799 49.7676 26.2539 51.9958 27.1633L53.5074 23.4599C50.7318 22.3271 47.6615 21.7799 44.3269 21.7799V25.7799ZM52.0411 27.1812C54.376 28.0685 56.314 29.2639 57.8896 30.7494L60.6336 27.8391C58.6351 25.9547 56.233 24.4951 53.462 23.4421L52.0411 27.1812ZM57.9101 30.7685C59.5694 32.2895 60.8089 33.9677 61.6593 35.8027L65.2886 34.1208C64.1987 31.769 62.63 29.6688 60.613 27.8199L57.9101 30.7685ZM61.6593 35.8027C62.5137 37.6463 62.9291 39.5048 62.9291 41.3952H66.9291C66.9291 38.8944 66.3744 36.4641 65.2886 34.1208L61.6593 35.8027ZM62.9291 41.3952C62.9291 43.9276 62.1721 46.3828 60.5796 48.7943L63.9174 50.9986C65.8991 47.9979 66.9291 44.7856 66.9291 41.3952H62.9291ZM60.5746 48.802C59.0652 51.1105 56.8343 53.0333 53.7829 54.5355L55.5496 58.1242C59.1359 56.3587 61.9598 53.9926 63.9225 50.991L60.5746 48.802ZM53.8053 54.5247C50.8494 55.9344 47.1271 56.6214 42.5525 56.4754L42.425 60.4733C47.4495 60.6337 51.8455 59.891 55.5272 58.1351L53.8053 54.5247ZM44.4648 58.1656L44.0818 55.7148L40.1298 56.3323L40.5127 58.7831L44.4648 58.1656ZM42.2376 58.0192C47.8769 57.6468 52.3893 56.1662 55.3765 53.2399L52.5774 50.3825C50.5609 52.3578 47.1592 53.6855 41.974 54.0279L42.2376 58.0192ZM55.362 53.254C58.2926 50.4406 59.8064 46.9898 59.8064 43.0035H55.8064C55.8064 45.8591 54.7672 48.2801 52.5919 50.3684L55.362 53.254ZM59.8064 43.0035C59.8064 40.1027 59.1779 37.4411 57.8739 35.0702L54.369 36.9978C55.3116 38.7116 55.8064 40.6963 55.8064 43.0035H59.8064ZM57.8838 35.0884C56.6174 32.7283 54.9046 30.7784 52.7526 29.2662L50.4529 32.539C52.0793 33.6819 53.3789 35.1529 54.3591 36.9796L57.8838 35.0884ZM52.7817 29.287C50.654 27.7343 48.2469 26.6789 45.5856 26.1126L44.7531 30.025C46.8913 30.48 48.7732 31.3137 50.4238 32.5182L52.7817 29.287ZM45.6251 26.1214C42.96 25.4977 40.2211 25.4167 37.4243 25.8642L38.0563 29.8139C40.3654 29.4445 42.5791 29.5166 44.7136 30.0162L45.6251 26.1214ZM35.7403 27.8391V75.4769H39.7403V27.8391H35.7403ZM36.9975 77.3339C38.4513 77.9154 39.9833 78.2895 41.5864 78.4612L42.0125 74.484C40.7563 74.3494 39.5822 74.0596 38.4831 73.62L36.9975 77.3339ZM41.5864 78.4612C43.0424 78.6172 44.2474 78.7024 45.1693 78.7024V74.7024C44.4574 74.7024 43.4158 74.6343 42.0125 74.484L41.5864 78.4612ZM43.1693 76.7024V79H47.1693V76.7024H43.1693ZM45.1693 77H24.3373V81H45.1693V77ZM66.1545 78.2341L64.7403 79.6483L64.7403 79.6483L66.1545 78.2341ZM66.1545 71.4178L64.7026 70.0423L64.7026 70.0423L66.1545 71.4178ZM73.0475 71.3412L71.6332 72.7554L71.6523 72.7745L71.672 72.7931L73.0475 71.3412ZM73.0475 78.1575L71.5975 76.78L71.5956 76.782L73.0475 78.1575ZM69.601 77.6127C68.7171 77.6127 68.0882 77.3394 67.5687 76.8199L64.7403 79.6483C66.059 80.967 67.7277 81.6127 69.601 81.6127V77.6127ZM67.5687 76.8199C67.0336 76.2848 66.7759 75.674 66.7759 74.8642H62.7759C62.7759 76.7095 63.4373 78.3453 64.7403 79.6483L67.5687 76.8199ZM66.7759 74.8642C66.7759 74.0522 67.0367 73.3946 67.6064 72.7933L64.7026 70.0423C63.4342 71.3811 62.7759 73.0212 62.7759 74.8642H66.7759ZM67.6064 72.7933C68.1345 72.2358 68.752 71.9626 69.601 71.9626V67.9626C67.6928 67.9626 66.0126 68.6595 64.7026 70.0423L67.6064 72.7933ZM69.601 71.9626C70.4849 71.9626 71.1138 72.2359 71.6332 72.7554L74.4617 69.927C73.143 68.6083 71.4743 67.9626 69.601 67.9626V71.9626ZM71.672 72.7931C72.2464 73.3373 72.5026 73.9368 72.5026 74.7111H76.5026C76.5026 72.8302 75.7887 71.1832 74.4229 69.8893L71.672 72.7931ZM72.5026 74.7111C72.5026 75.4199 72.2542 76.0887 71.5975 76.78L74.4975 79.535C75.7809 78.184 76.5026 76.5552 76.5026 74.7111H72.5026ZM71.5956 76.782C71.0675 77.3395 70.45 77.6127 69.601 77.6127V81.6127C71.5092 81.6127 73.1893 80.9158 74.4994 79.533L71.5956 76.782Z" fill="#335231" mask="url(#path-2-outside-1_14_36)"/>
</svg>
